<svg width="60" height="60" viewBox="0 0 60 60" fill="none" xmlns="http://www.w3.org/2000/svg">
<circle cx="30" cy="30" r="30" fill="white"/>
<g clip-path="url(#clip0_0_125)">
<path d="M42.9897 21.5009L39.5088 19.4911L37.4995 16.0108H33.4806L29.9997 14.001L26.5188 16.0108H22.4998L20.4901 19.4917L17.0098 21.5009V25.5199L15 29.0008L17.0098 32.4817V36.5006L20.4907 38.5104L22.5005 41.9913H26.5194L29.9998 44.0005L33.4807 41.9908H37.4996L39.5094 38.5099L42.9903 36.5001V32.4811L45.0001 29.0002L42.9903 25.5193V21.5009H42.9897ZM28.6459 35.14C28.3662 35.4197 27.9977 35.5556 27.6309 35.5505C27.264 35.5557 26.8956 35.4197 26.6159 35.14L22.229 30.7531C21.6795 30.2036 21.6795 29.3121 22.229 28.7626L23.3904 27.6012C23.9399 27.0517 24.8314 27.0517 25.3809 27.6012L27.6309 29.8512L34.6181 22.8635C35.1676 22.314 36.0591 22.314 36.6087 22.8635L37.77 24.0248C38.3195 24.5744 38.3195 25.4659 37.77 26.0154L28.6459 35.14Z" fill="#27AE60"/>
</g>
<defs>
<clipPath id="clip0_0_125">
<rect width="30" height="30" fill="white" transform="translate(15 14)"/>
</clipPath>
</defs>
</svg>
