<svg width="60" height="60" viewBox="0 0 60 60" fill="none" xmlns="http://www.w3.org/2000/svg">
<circle cx="30" cy="30" r="30" fill="white"/>
<path d="M29.8189 15.0037C29.8067 15.0037 29.8019 15.0037 29.797 15.0037C29.7874 15.0037 29.7874 15.0037 29.7849 15.0037C29.7849 15.0037 29.7849 15.0037 29.7813 15.0037C29.7777 15.0037 29.7728 15.0037 29.768 15.0037C29.7655 15.0037 29.7655 15.0037 29.7655 15.0037C29.7655 15.0037 29.7655 15.0037 29.7607 15.0037C29.728 14.9964 29.7183 15.0013 29.694 15.0013C25.8127 15.0013 22.0368 16.5402 19.2461 19.2461L16.1779 16.1307C16.0288 15.9852 15.8034 15.9392 15.6192 16.0167C15.4266 16.0991 15.2981 16.2833 15.2981 16.4942V26.6101C15.2981 26.8949 15.5296 27.1251 15.8107 27.1251H25.803C25.8091 27.1251 25.82 27.1251 25.8273 27.1251C26.1108 27.1251 26.3411 26.8961 26.3411 26.6101C26.3411 26.4211 26.2381 26.2539 26.0842 26.1654L23.0535 23.0984C24.8506 21.3631 27.1954 20.4131 29.7668 20.4131C35.0138 20.447 39.2877 24.7428 39.2877 30.077C39.2477 35.3192 34.9495 39.5858 29.6177 39.5858L29.6298 45.0001H29.7037C37.9184 45.0001 44.6486 38.3135 44.7019 30.0031C44.7019 21.7933 38.0323 15.0728 29.8189 15.0037Z" fill="#27AE60"/>
</svg>
