<svg width="60" height="60" viewBox="0 0 60 60" fill="none" xmlns="http://www.w3.org/2000/svg">
<circle cx="30" cy="30" r="30" fill="white"/>
<path d="M44.8661 23.009C44.7766 22.3617 44.643 21.6694 44.4643 20.9327C44.2857 20.1963 44.0209 19.5712 43.6693 19.0577C43.3177 18.5443 42.924 18.2875 42.4889 18.2875C42.4388 18.0698 42.1959 18.0949 41.7605 18.3629C41.3252 18.6308 41.1214 18.7203 41.1497 18.6308C41.1774 18.5415 41.0264 18.653 40.6973 18.9655C40.3681 19.2781 40.2037 19.4343 40.2037 19.4343L39.7097 19.928C39.2746 20.3411 38.6413 20.6562 37.8097 20.8738C36.9782 21.0919 36.066 21.2254 35.0726 21.2757C34.0793 21.3261 33.0832 21.3597 32.0843 21.3762C31.0854 21.3928 30.0836 21.4432 29.0792 21.5268C28.0747 21.6106 27.2655 21.7529 26.6518 21.9538C25.4351 22.3555 24.2968 22.8886 23.2365 23.5527C22.1761 24.2168 21.2248 24.9925 20.3821 25.8799C19.5395 26.7671 18.8753 27.7967 18.39 28.9687C17.9047 30.1402 17.6617 31.3682 17.6617 32.6516C17.6617 33.2432 17.7119 33.8235 17.8123 34.3928C17.8347 34.5044 17.9238 34.75 18.0803 35.1294C18.2366 35.5091 18.3147 35.721 18.3147 35.7659C18.3147 35.9776 18.1417 36.246 17.7956 36.5692C17.4496 36.8929 17.0703 37.2055 16.6572 37.5067C16.2443 37.8079 15.8649 38.1735 15.5188 38.6031C15.1731 39.0331 15 39.4433 15 39.8338C15 39.9121 15.0082 39.9871 15.0251 40.0599C15.042 40.1326 15.0588 40.1854 15.0755 40.2187C15.0921 40.2524 15.123 40.308 15.1675 40.3858C15.2123 40.4639 15.2455 40.5257 15.268 40.5701C15.4578 40.8936 15.6084 41.1282 15.72 41.2732C15.8315 41.4182 16.0044 41.552 16.2389 41.675C16.4731 41.7976 16.758 41.859 17.0927 41.859C17.4165 41.859 17.7512 41.6804 18.0973 41.3236C18.443 40.9666 18.7362 40.5755 18.9761 40.1518C19.2159 39.7277 19.4672 39.337 19.7294 38.9799C19.9916 38.6229 20.2121 38.4443 20.3906 38.4443C20.6473 38.4443 21.1829 38.6509 21.9978 39.0639C22.8125 39.4771 23.3036 39.7113 23.471 39.7673C25.0111 40.2918 26.607 40.5541 28.259 40.5541C30.7592 40.5541 33.203 39.9509 35.5917 38.7456C38.0361 37.5292 40.0308 36.0338 41.5767 34.2591C43.1227 32.4842 44.1521 30.3473 44.6656 27.8469C44.8884 26.7531 44.9999 25.6762 44.9999 24.6158C45 24.1917 44.9554 23.656 44.8661 23.009ZM36.1102 28.6839C35.8981 28.896 35.6467 29.0021 35.3565 29.0021C33.3253 29.0021 31.576 29.2923 30.1083 29.8725C28.6409 30.4528 27.1425 31.435 25.6134 32.8189C25.3905 33.031 25.0165 33.3991 24.4919 33.9238C23.9674 34.4485 23.5543 34.8446 23.2531 35.1124C23.0186 35.3245 22.7676 35.4306 22.4996 35.4306C22.2093 35.4306 21.9582 35.3245 21.7461 35.1124C21.534 34.9009 21.428 34.6492 21.428 34.359C21.428 34.0911 21.534 33.8405 21.7461 33.6057C23.1076 32.0989 24.4219 30.874 25.6887 29.9311C26.9555 28.9881 28.4037 28.2404 30.0332 27.6878C31.6624 27.1352 33.437 26.859 35.3565 26.859C35.6467 26.859 35.8981 26.9651 36.1102 27.1771C36.3221 27.3894 36.4283 27.6405 36.4283 27.9306C36.4282 28.2207 36.3225 28.4719 36.1102 28.6839Z" fill="#27AE60"/>
</svg>
