<svg width="60" height="60" viewBox="0 0 60 60" fill="none" xmlns="http://www.w3.org/2000/svg">
<circle cx="30" cy="30" r="30" fill="white"/>
<path d="M40.4287 24.4504H36.4726V28.9998H31.9232V32.9559H36.4726V37.5053H40.4287V32.9559H44.9781V28.9998H40.4287V24.4504Z" fill="#27AE60"/>
<path d="M29.9451 27.0219H34.4945V22.4724H42.4066V27.0219H44.701C45.5231 25.7032 46 24.2082 46 22.5693C46 18.0013 42.2976 14.2974 37.7305 14.2974C34.9555 14.2974 32.5 15.6643 31 17.7618C29.5 15.6642 27.0445 14.2968 24.2695 14.2968C19.7024 14.2968 16 17.9999 16 22.568C16 24.5538 16.6997 26.3758 17.8659 27.8015L31 43.7033L34.4945 39.4723V34.934H29.9451V27.0219Z" fill="#27AE60"/>
</svg>
